<svg xmlns="http://www.w3.org/2000/svg" xmlns:v="https://svgstorm.com"
viewBox = "0 0 400 196"
width="213"
height="56">
<g fill="None" fill-opacity="0.0" stroke="" stroke-opacity="1.00" stroke-width="0.3"><path d="
M 0.00 196.00 
L 400.00 196.00
L 400.00 0.00
L 110.00 0.00
C 118.20 2.57 129.19 4.48 136.75 12.25 C 144.31 20.01 149.78 27.93 150.00 39.00
C 150.05 41.66 150.00 44.34 150.00 47.00
C 150.00 55.05 147.09 62.69 141.75 68.75 C 136.41 74.81 131.49 79.24 123.92 81.92 C 116.36 84.61 103.91 84.97 95.93 83.07 C 87.94 81.17 82.67 77.08 76.75 71.25 C 70.84 65.41 68.77 57.91 67.01 49.99 C 65.25 42.07 66.14 31.09 69.92 23.92 C 73.71 16.76 78.49 12.83 84.70 7.70 C 90.90 2.57 102.47 2.90 108.00 0.00
L 0.00 0.00
L 0.00 196.00
M 321.00 173.00 
C 315.88 174.04 310.06 174.03 305.00 173.00
C 296.70 172.27 288.79 168.25 282.00 164.00
C 279.48 170.87 274.46 173.71 267.00 174.00 C 259.53 174.29 250.15 174.14 243.00 172.00 C 235.84 169.87 232.11 167.00 225.92 171.92 C 219.73 176.84 209.70 172.98 202.78 173.22 C 195.85 173.46 191.44 167.02 186.00 164.00
C 183.48 170.06 177.81 176.10 170.00 174.00 C 162.19 171.90 156.06 173.91 148.00 174.00 C 139.94 174.09 135.31 172.95 127.99 175.99 C 120.67 179.03 111.81 171.10 104.00 174.00 C 96.19 176.90 90.42 169.63 84.00 168.00
C 73.80 175.52 56.60 174.22 44.78 169.22 C 32.95 164.23 25.53 155.84 20.02 143.98 C 14.52 132.12 15.03 115.60 22.92 103.92 C 30.80 92.24 42.81 87.62 57.00 88.00 C 71.19 88.38 91.10 85.64 90.00 106.00
C 102.66 104.57 118.57 105.42 132.00 108.00
C 128.07 97.64 137.87 84.52 149.00 88.00 C 160.13 91.48 170.21 85.74 182.00 89.00
C 177.54 82.55 172.77 80.55 172.00 71.00 C 171.23 61.45 178.76 59.15 181.99 51.99 C 185.22 44.84 190.73 39.71 199.00 40.00 C 207.27 40.29 214.61 44.71 214.00 54.00
C 250.00 54.00 286.00 54.00 322.00 54.00
C 316.82 37.66 350.15 28.86 353.92 46.08 C 357.69 63.30 351.26 86.26 354.00 104.00
C 365.63 103.92 378.18 108.88 381.92 121.08 C 385.67 133.27 384.17 150.06 383.22 163.22 C 382.27 176.38 360.37 178.16 354.00 168.00
C 345.07 177.60 331.77 171.89 321.00 173.00 Z"/>
</g>
<g fill="None" fill-opacity="0.0" stroke="#7D4CA2" stroke-opacity="1.00" stroke-width="0.3"><path d="
M 150.00 47.00 
C 149.82 47.52 148.20 48.54 148.00 49.00
C 147.68 53.72 145.87 57.12 144.00 61.00
C 137.98 73.45 129.99 73.52 124.00 61.00
C 118.64 49.78 118.81 37.36 124.00 26.00
C 125.64 22.42 129.46 15.22 134.08 14.08 C 138.70 12.95 143.68 22.76 145.00 26.00
C 146.36 29.34 146.85 32.70 148.00 36.00
C 148.23 36.65 149.84 38.39 150.00 39.00
C 149.78 27.93 144.31 20.01 136.75 12.25 C 129.19 4.48 118.20 2.57 110.00 0.00
L 108.00 0.00
C 102.47 2.90 90.90 2.57 84.70 7.70 C 78.49 12.83 73.71 16.76 69.92 23.92 C 66.14 31.09 65.25 42.07 67.01 49.99 C 68.77 57.91 70.84 65.41 76.75 71.25 C 82.67 77.08 87.94 81.17 95.93 83.07 C 103.91 84.97 116.36 84.61 123.92 81.92 C 131.49 79.24 136.41 74.81 141.75 68.75 C 147.09 62.69 150.00 55.05 150.00 47.00
M 99.00 13.00 
C 95.22 12.32 90.42 12.81 87.00 14.00
C 88.32 8.40 96.18 6.16 104.00 6.00 C 111.83 5.84 119.12 5.64 126.69 10.31 C 134.27 14.97 123.26 19.33 121.23 25.23 C 119.20 31.13 116.08 41.91 118.00 49.00 C 119.92 56.09 119.61 62.17 125.75 68.25 C 131.90 74.32 125.82 77.27 117.93 78.93 C 110.03 80.59 101.70 80.30 94.00 78.00
C 99.73 73.67 108.95 70.64 111.92 61.92 C 114.89 53.20 115.86 40.94 114.00 32.00 C 112.15 23.06 107.18 16.36 99.00 13.00
M 98.00 16.00 
C 104.03 18.04 105.80 21.65 108.00 27.00
C 112.54 38.04 113.44 49.99 108.00 61.00
C 98.91 79.38 82.29 70.49 77.68 56.32 C 73.06 42.15 74.56 21.70 90.00 16.00
C 92.96 14.91 95.10 15.02 98.00 16.00
M 73.00 39.00 
C 73.01 40.63 72.98 45.48 73.00 47.00
C 73.44 48.94 73.59 50.98 74.00 53.00
C 74.35 54.69 76.83 58.55 75.00 60.00
C 73.51 58.84 72.98 56.66 72.00 55.00
C 67.81 44.20 70.26 29.41 78.00 22.00
C 75.55 27.44 73.57 32.94 73.00 39.00 Z"/>
</g>
<g fill="None" fill-opacity="0.0" stroke="#F8F8FB" stroke-opacity="1.00" stroke-width="0.3"><path d="
M 87.00 14.00 
C 89.27 10.28 96.01 12.06 99.00 13.00
C 107.18 16.36 112.15 23.06 114.00 32.00 C 115.86 40.94 114.89 53.20 111.92 61.92 C 108.95 70.64 99.73 73.67 94.00 78.00
C 101.70 80.30 110.03 80.59 117.93 78.93 C 125.82 77.27 131.90 74.32 125.75 68.25 C 119.61 62.17 119.92 56.09 118.00 49.00 C 116.08 41.91 119.20 31.13 121.23 25.23 C 123.26 19.33 134.27 14.97 126.69 10.31 C 119.12 5.64 111.83 5.84 104.00 6.00 C 96.18 6.16 88.32 8.40 87.00 14.00 Z"/>
</g>
<g fill="None" fill-opacity="0.0" stroke="#A39BD1" stroke-opacity="1.00" stroke-width="0.3"><path d="
M 87.00 14.00 
C 90.42 12.81 95.22 12.32 99.00 13.00
C 96.01 12.06 89.27 10.28 87.00 14.00 Z"/>
</g>
<g fill="None" fill-opacity="0.0" stroke="#F76731" stroke-opacity="1.00" stroke-width="0.3"><path d="
M 124.00 26.00 
C 126.01 24.92 131.56 25.84 134.00 26.00 C 136.44 26.16 142.88 24.79 145.00 26.00
C 143.68 22.76 138.70 12.95 134.08 14.08 C 129.46 15.22 125.64 22.42 124.00 26.00 Z"/>
</g>
<g fill="None" fill-opacity="0.0" stroke="#C95766" stroke-opacity="1.00" stroke-width="0.3"><path d="
M 90.00 16.00 
C 92.03 15.55 95.95 15.60 98.00 16.00
C 95.10 15.02 92.96 14.91 90.00 16.00 Z"/>
</g>
<g fill="None" fill-opacity="0.0" stroke="#F86A2C" stroke-opacity="1.00" stroke-width="0.3"><path d="
M 108.00 61.00 
C 101.70 60.77 94.52 61.75 89.00 60.00
C 78.76 56.76 75.41 43.52 79.93 34.93 C 84.44 26.33 100.31 21.78 108.00 27.00
C 105.80 21.65 104.03 18.04 98.00 16.00
C 95.95 15.60 92.03 15.55 90.00 16.00
C 74.56 21.70 73.06 42.15 77.68 56.32 C 82.29 70.49 98.91 79.38 108.00 61.00
M 97.00 63.00 
C 98.70 64.22 100.01 66.68 99.00 69.00
C 97.62 72.18 89.37 72.16 88.00 69.00
C 86.97 66.64 88.29 64.23 90.00 63.00
C 92.01 61.55 95.02 61.57 97.00 63.00 Z"/>
</g>
<g fill="None" fill-opacity="0.0" stroke="#EAE8F2" stroke-opacity="1.00" stroke-width="0.3"><path d="
M 72.00 55.00 
C 71.78 56.10 73.77 54.94 74.00 53.00
C 73.59 50.98 73.44 48.94 73.00 47.00
C 72.31 43.99 72.40 41.94 73.00 39.00
C 73.57 32.94 75.55 27.44 78.00 22.00
C 70.26 29.41 67.81 44.20 72.00 55.00 Z"/>
</g>
<g fill="None" fill-opacity="0.0" stroke="#F6F1F1" stroke-opacity="1.00" stroke-width="0.3"><path d="
M 89.00 60.00 
C 95.09 61.09 102.72 58.35 108.00 61.00
C 113.44 49.99 112.54 38.04 108.00 27.00
C 100.31 21.78 84.44 26.33 79.93 34.93 C 75.41 43.52 78.76 56.76 89.00 60.00
M 100.00 31.00 
C 117.00 34.44 107.88 63.45 91.33 56.67 C 74.78 49.89 83.89 27.74 100.00 31.00 Z"/>
</g>
<g fill="None" fill-opacity="0.0" stroke="#FDFAFB" stroke-opacity="1.00" stroke-width="0.3"><path d="
M 124.00 61.00 
C 126.61 62.24 141.38 62.23 144.00 61.00
C 145.87 57.12 147.68 53.72 148.00 49.00
C 148.28 44.85 148.38 40.14 148.00 36.00
C 146.85 32.70 146.36 29.34 145.00 26.00
C 142.88 24.79 136.44 26.16 134.00 26.00 C 131.56 25.84 126.01 24.92 124.00 26.00
C 118.81 37.36 118.64 49.78 124.00 61.00 Z"/>
</g>
<g fill="None" fill-opacity="0.0" stroke="#7B6998" stroke-opacity="1.00" stroke-width="0.3"><path d="
M 100.00 31.00 
C 83.89 27.74 74.78 49.89 91.33 56.67 C 107.88 63.45 117.00 34.44 100.00 31.00
M 101.00 33.00 
C 114.68 37.15 106.07 61.82 91.78 55.22 C 77.49 48.62 85.58 28.32 101.00 33.00 Z"/>
</g>
<g fill="None" fill-opacity="0.0" stroke="#F9F8F9" stroke-opacity="1.00" stroke-width="0.3"><path d="
M 101.00 33.00 
C 85.58 28.32 77.49 48.62 91.78 55.22 C 106.07 61.82 114.68 37.15 101.00 33.00
M 98.00 45.00 
C 95.04 44.61 91.30 42.26 91.00 39.00
C 94.05 39.72 97.03 41.84 98.00 45.00 Z"/>
</g>
<g fill="None" fill-opacity="0.0" stroke="#BC7DA5" stroke-opacity="1.00" stroke-width="0.3"><path d="
M 148.00 49.00 
C 148.20 48.54 149.82 47.52 150.00 47.00
C 150.00 44.34 150.05 41.66 150.00 39.00
C 149.84 38.39 148.23 36.65 148.00 36.00
C 148.38 40.14 148.28 44.85 148.00 49.00 Z"/>
</g>
<g fill="None" fill-opacity="0.0" stroke="#FF7633" stroke-opacity="1.00" stroke-width="0.3"><path d="
M 305.00 173.00 
C 310.06 173.45 315.94 173.45 321.00 173.00
C 331.77 171.89 345.07 177.60 354.00 168.00
C 360.37 178.16 382.27 176.38 383.22 163.22 C 384.17 150.06 385.67 133.27 381.92 121.08 C 378.18 108.88 365.63 103.92 354.00 104.00
C 351.26 86.26 357.69 63.30 353.92 46.08 C 350.15 28.86 316.82 37.66 322.00 54.00
C 286.00 54.00 250.00 54.00 214.00 54.00
C 214.61 44.71 207.27 40.29 199.00 40.00 C 190.73 39.71 185.22 44.84 181.99 51.99 C 178.76 59.15 171.23 61.45 172.00 71.00 C 172.77 80.55 177.54 82.55 182.00 89.00
C 170.21 85.74 160.13 91.48 149.00 88.00 C 137.87 84.52 128.07 97.64 132.00 108.00
C 118.57 105.42 102.66 104.57 90.00 106.00
C 91.10 85.64 71.19 88.38 57.00 88.00 C 42.81 87.62 30.80 92.24 22.92 103.92 C 15.03 115.60 14.52 132.12 20.02 143.98 C 25.53 155.84 32.95 164.23 44.78 169.22 C 56.60 174.22 73.80 175.52 84.00 168.00
C 90.42 169.63 96.19 176.90 104.00 174.00 C 111.81 171.10 120.67 179.03 127.99 175.99 C 135.31 172.95 139.94 174.09 148.00 174.00 C 156.06 173.91 162.19 171.90 170.00 174.00 C 177.81 176.10 183.48 170.06 186.00 164.00
C 191.44 167.02 195.85 173.46 202.78 173.22 C 209.70 172.98 219.73 176.84 225.92 171.92 C 232.11 167.00 235.84 169.87 243.00 172.00 C 250.15 174.14 259.53 174.29 267.00 174.00 C 274.46 173.71 279.48 170.87 282.00 164.00
C 288.79 168.25 296.70 172.27 305.00 173.00
M 271.00 168.00 
C 265.22 170.70 251.86 169.66 246.00 168.00
C 240.67 166.49 237.60 166.13 232.77 162.23 C 227.95 158.32 226.67 165.12 221.92 166.92 C 217.18 168.73 208.03 168.45 203.00 168.00 C 197.97 167.55 193.87 164.43 190.75 160.25 C 187.64 156.07 188.09 149.78 188.00 144.00 C 187.91 138.22 188.06 130.14 188.00 124.00 C 187.94 117.86 188.07 110.14 188.00 104.00 C 187.93 97.86 188.14 89.80 188.00 84.00 C 187.86 78.20 178.32 80.40 178.01 74.99 C 177.69 69.58 173.84 64.54 180.75 61.75 C 187.66 58.97 187.17 56.53 188.78 49.78 C 190.39 43.03 199.74 46.23 204.07 46.93 C 208.41 47.63 209.45 56.42 211.00 60.00
C 230.35 60.45 250.75 59.39 270.00 60.00 C 289.25 60.61 308.93 57.95 327.00 62.00
C 325.77 53.07 331.22 37.16 342.69 43.31 C 354.16 49.46 349.13 61.77 350.00 73.00 C 350.87 84.23 349.35 98.49 350.00 110.00
C 362.78 105.14 379.28 119.15 378.00 131.00 C 376.72 142.85 384.30 169.23 366.99 169.99 C 349.69 170.75 362.28 138.89 357.00 130.00
C 347.09 130.51 348.98 147.03 350.00 154.00 C 351.02 160.97 344.12 174.49 335.78 169.22 C 327.43 163.95 322.93 166.22 313.00 168.00 C 303.07 169.78 297.03 164.52 288.77 161.23 C 280.51 157.94 280.96 145.80 272.00 146.00
C 278.71 152.07 280.65 163.00 271.00 168.00
M 76.00 114.00 
C 67.95 116.97 57.56 112.85 49.00 115.00
C 42.34 117.71 42.26 127.18 44.00 133.00 C 45.74 138.83 50.56 144.21 56.69 145.31 C 62.83 146.40 73.27 146.72 79.02 147.98 C 84.78 149.23 81.49 132.04 89.00 132.00
C 78.19 120.08 88.11 108.46 102.00 110.00 C 115.89 111.54 127.49 108.68 136.00 121.00
C 136.92 113.60 133.43 101.68 139.25 96.25 C 145.08 90.83 157.98 92.99 157.00 102.00
C 158.93 110.71 158.60 122.50 158.00 132.00 C 157.40 141.50 160.41 154.62 157.00 163.00
C 152.54 173.96 141.29 167.77 134.00 164.00
C 133.77 170.57 123.75 171.19 119.00 169.00
C 115.86 168.71 112.14 168.71 109.00 169.00
C 99.47 169.89 88.73 165.12 83.00 158.00
C 82.09 161.53 80.69 165.27 77.00 167.00
C 72.29 170.04 65.05 169.43 60.00 168.00
C 50.35 165.27 39.94 162.11 32.75 154.25 C 25.57 146.39 20.76 134.78 22.00 124.00 C 23.24 113.22 27.23 104.39 36.75 97.75 C 46.27 91.12 60.02 91.92 72.00 92.00 C 83.98 92.08 88.64 109.33 76.00 114.00
M 164.00 167.00 
C 156.76 161.61 161.00 152.33 160.00 144.00 C 159.00 135.67 160.68 125.07 161.00 117.00
C 160.36 108.58 155.56 91.16 170.00 92.00 C 184.45 92.85 177.89 106.25 179.26 115.75 C 180.63 125.24 178.48 141.55 180.00 152.00 C 181.52 162.45 175.77 175.75 164.00 167.00
M 80.00 118.00 
C 83.91 129.36 78.46 142.13 68.00 142.00 C 57.54 141.87 45.55 134.58 48.33 124.33 C 51.11 114.08 73.00 122.46 80.00 118.00 Z"/>
</g>
<g fill="None" fill-opacity="0.0" stroke="#A5A0D1" stroke-opacity="1.00" stroke-width="0.3"><path d="
M 73.00 47.00 
C 73.00 44.33 73.00 41.67 73.00 39.00
C 72.40 41.94 72.31 43.99 73.00 47.00 Z"/>
</g>
<g fill="None" fill-opacity="0.0" stroke="#361FA1" stroke-opacity="1.00" stroke-width="0.3"><path d="
M 73.00 47.00 
C 72.98 45.48 73.01 40.63 73.00 39.00
C 73.00 41.67 73.00 44.33 73.00 47.00 Z"/>
</g>
<g fill="None" fill-opacity="0.0" stroke="#584C8D" stroke-opacity="1.00" stroke-width="0.3"><path d="
M 98.00 45.00 
C 97.03 41.84 94.05 39.72 91.00 39.00
C 91.30 42.26 95.04 44.61 98.00 45.00 Z"/>
</g>
<g fill="None" fill-opacity="0.0" stroke="#FCF9F8" stroke-opacity="1.00" stroke-width="0.3"><path d="
M 246.00 168.00 
C 252.24 168.95 264.99 169.80 271.00 168.00
C 280.65 163.00 278.71 152.07 272.00 146.00
C 280.96 145.80 280.51 157.94 288.77 161.23 C 297.03 164.52 303.07 169.78 313.00 168.00 C 322.93 166.22 327.43 163.95 335.78 169.22 C 344.12 174.49 351.02 160.97 350.00 154.00 C 348.98 147.03 347.09 130.51 357.00 130.00
C 362.28 138.89 349.69 170.75 366.99 169.99 C 384.30 169.23 376.72 142.85 378.00 131.00 C 379.28 119.15 362.78 105.14 350.00 110.00
C 349.35 98.49 350.87 84.23 350.00 73.00 C 349.13 61.77 354.16 49.46 342.69 43.31 C 331.22 37.16 325.77 53.07 327.00 62.00
C 308.93 57.95 289.25 60.61 270.00 60.00 C 250.75 59.39 230.35 60.45 211.00 60.00
C 209.45 56.42 208.41 47.63 204.07 46.93 C 199.74 46.23 190.39 43.03 188.78 49.78 C 187.17 56.53 187.66 58.97 180.75 61.75 C 173.84 64.54 177.69 69.58 178.01 74.99 C 178.32 80.40 187.86 78.20 188.00 84.00 C 188.14 89.80 187.93 97.86 188.00 104.00 C 188.07 110.14 187.94 117.86 188.00 124.00 C 188.06 130.14 187.91 138.22 188.00 144.00 C 188.09 149.78 187.64 156.07 190.75 160.25 C 193.87 164.43 197.97 167.55 203.00 168.00 C 208.03 168.45 217.18 168.73 221.92 166.92 C 226.67 165.12 227.95 158.32 232.77 162.23 C 237.60 166.13 240.67 166.49 246.00 168.00
M 346.00 116.00 
C 352.12 113.74 360.52 111.84 366.69 116.31 C 372.87 120.77 374.52 125.94 374.00 134.00 C 373.48 142.06 374.27 150.13 374.00 159.00 C 373.73 167.87 360.42 165.97 362.00 157.00 C 363.58 148.03 361.41 140.22 362.00 132.00 C 362.59 123.78 349.57 125.25 347.75 130.75 C 345.94 136.25 343.64 147.21 346.00 154.00 C 348.36 160.79 337.41 169.90 332.77 163.23 C 328.13 156.56 333.61 146.67 332.00 139.00 C 330.39 131.33 332.79 121.93 332.00 114.00 C 331.21 106.07 332.51 96.93 332.00 89.00 C 331.49 81.07 332.57 70.56 332.00 63.00 C 331.43 55.44 330.73 44.43 340.00 46.00 C 349.27 47.57 345.27 57.60 346.00 65.00 C 346.73 72.40 345.63 82.03 346.00 90.00 C 346.37 97.97 345.73 107.86 346.00 116.00
M 206.00 64.00 
C 220.11 64.37 236.08 63.50 250.00 64.00 C 263.92 64.50 280.77 63.04 294.00 64.00 C 307.23 64.96 328.53 57.47 326.00 76.00
C 286.00 76.00 246.00 76.00 206.00 76.00
C 206.00 101.33 206.00 126.67 206.00 152.00
C 212.00 152.00 218.00 152.00 224.00 152.00
C 229.49 166.10 202.79 169.85 195.75 160.25 C 188.72 150.64 192.95 132.74 192.00 120.00 C 191.05 107.26 192.71 89.22 192.00 76.00
C 178.47 81.65 178.45 58.37 192.00 64.00
C 191.40 57.50 191.07 49.74 199.00 50.00 C 206.94 50.27 205.88 57.84 206.00 64.00
M 326.00 113.00 
C 318.97 112.57 308.68 106.82 300.78 110.78 C 292.87 114.73 286.83 111.63 281.70 120.70 C 276.56 129.77 274.24 120.46 268.75 115.25 C 263.27 110.03 255.17 106.97 247.00 108.00 C 238.83 109.03 234.43 112.43 228.25 119.25 C 222.07 126.06 221.91 131.15 222.00 142.00 C 222.09 152.85 206.09 147.03 210.00 137.00 C 213.91 126.97 206.93 116.21 210.00 108.00 C 213.07 99.79 204.86 83.46 212.00 80.00
C 218.22 76.99 227.98 81.36 235.00 80.00 C 242.02 78.64 250.60 80.62 258.00 80.00 C 265.40 79.38 273.41 80.28 281.00 80.00 C 288.59 79.72 296.26 80.14 304.00 80.00 C 311.74 79.86 320.19 80.11 328.00 80.00
C 327.60 85.26 328.54 92.99 328.00 98.00 C 327.46 103.01 329.87 113.03 326.00 113.00
M 240.00 144.00 
C 242.72 148.98 251.06 154.36 258.00 152.00 C 264.94 149.64 279.55 154.54 273.07 162.07 C 266.59 169.61 255.54 162.34 248.00 164.00 C 240.46 165.66 235.66 159.20 230.25 154.75 C 224.83 150.31 225.44 139.09 226.00 132.00 C 226.56 124.91 231.64 121.21 236.70 116.70 C 241.75 112.18 251.23 110.39 258.02 112.98 C 264.82 115.56 269.04 119.73 271.92 126.08 C 274.81 132.42 276.75 144.50 267.00 144.00 C 257.24 143.49 249.57 144.38 240.00 144.00
M 324.00 152.00 
C 328.73 166.86 309.43 165.33 301.31 162.69 C 293.18 160.05 283.95 155.57 281.23 146.77 C 278.51 137.97 278.40 125.14 287.75 119.75 C 297.11 114.36 305.38 111.42 318.00 114.00 C 330.62 116.58 320.13 134.00 308.00 128.00 C 295.87 122.00 287.77 137.56 295.25 144.75 C 302.74 151.93 313.70 152.67 324.00 152.00
M 299.00 133.00 
C 304.74 130.03 313.42 133.16 320.00 132.00
C 322.72 131.15 325.03 129.12 328.00 129.00
C 328.00 136.33 328.00 143.67 328.00 151.00
C 322.22 147.61 313.32 147.30 306.78 146.22 C 300.23 145.15 291.29 138.00 299.00 133.00 Z"/>
</g>
<g fill="None" fill-opacity="0.0" stroke="#7B3E9A" stroke-opacity="1.00" stroke-width="0.3"><path d="
M 346.00 116.00 
C 345.73 107.86 346.37 97.97 346.00 90.00 C 345.63 82.03 346.73 72.40 346.00 65.00 C 345.27 57.60 349.27 47.57 340.00 46.00 C 330.73 44.43 331.43 55.44 332.00 63.00 C 332.57 70.56 331.49 81.07 332.00 89.00 C 332.51 96.93 331.21 106.07 332.00 114.00 C 332.79 121.93 330.39 131.33 332.00 139.00 C 333.61 146.67 328.13 156.56 332.77 163.23 C 337.41 169.90 348.36 160.79 346.00 154.00 C 343.64 147.21 345.94 136.25 347.75 130.75 C 349.57 125.25 362.59 123.78 362.00 132.00 C 361.41 140.22 363.58 148.03 362.00 157.00 C 360.42 165.97 373.73 167.87 374.00 159.00 C 374.27 150.13 373.48 142.06 374.00 134.00 C 374.52 125.94 372.87 120.77 366.69 116.31 C 360.52 111.84 352.12 113.74 346.00 116.00 Z"/>
</g>
<g fill="None" fill-opacity="0.0" stroke="#79409C" stroke-opacity="1.00" stroke-width="0.3"><path d="
M 206.00 64.00 
C 205.88 57.84 206.94 50.27 199.00 50.00 C 191.07 49.74 191.40 57.50 192.00 64.00
C 178.45 58.37 178.47 81.65 192.00 76.00
C 192.71 89.22 191.05 107.26 192.00 120.00 C 192.95 132.74 188.72 150.64 195.75 160.25 C 202.79 169.85 229.49 166.10 224.00 152.00
C 218.00 152.00 212.00 152.00 206.00 152.00
C 206.00 126.67 206.00 101.33 206.00 76.00
C 246.00 76.00 286.00 76.00 326.00 76.00
C 328.53 57.47 307.23 64.96 294.00 64.00 C 280.77 63.04 263.92 64.50 250.00 64.00 C 236.08 63.50 220.11 64.37 206.00 64.00 Z"/>
</g>
<g fill="None" fill-opacity="0.0" stroke="#B6ACD8" stroke-opacity="1.00" stroke-width="0.3"><path d="
M 72.00 55.00 
C 72.98 56.66 73.51 58.84 75.00 60.00
C 76.83 58.55 74.35 54.69 74.00 53.00
C 73.77 54.94 71.78 56.10 72.00 55.00 Z"/>
</g>
<g fill="None" fill-opacity="0.0" stroke="#FEDBB5" stroke-opacity="1.00" stroke-width="0.3"><path d="
M 108.00 61.00 
C 102.72 58.35 95.09 61.09 89.00 60.00
C 94.52 61.75 101.70 60.77 108.00 61.00 Z"/>
</g>
<g fill="None" fill-opacity="0.0" stroke="#F46D33" stroke-opacity="1.00" stroke-width="0.3"><path d="
M 144.00 61.00 
C 141.38 62.23 126.61 62.24 124.00 61.00
C 129.99 73.52 137.98 73.45 144.00 61.00 Z"/>
</g>
<g fill="None" fill-opacity="0.0" stroke="#F3A28E" stroke-opacity="1.00" stroke-width="0.3"><path d="
M 90.00 63.00 
C 90.96 62.57 96.04 62.57 97.00 63.00
C 95.02 61.57 92.01 61.55 90.00 63.00 Z"/>
</g>
<g fill="None" fill-opacity="0.0" stroke="#FCF9F5" stroke-opacity="1.00" stroke-width="0.3"><path d="
M 88.00 69.00 
C 89.19 70.78 97.83 70.76 99.00 69.00
C 100.01 66.68 98.70 64.22 97.00 63.00
C 96.04 62.57 90.96 62.57 90.00 63.00
C 88.29 64.23 86.97 66.64 88.00 69.00 Z"/>
</g>
<g fill="None" fill-opacity="0.0" stroke="#FDAD62" stroke-opacity="1.00" stroke-width="0.3"><path d="
M 99.00 69.00 
C 97.83 70.76 89.19 70.78 88.00 69.00
C 89.37 72.16 97.62 72.18 99.00 69.00 Z"/>
</g>
<g fill="None" fill-opacity="0.0" stroke="#FF7633" stroke-opacity="1.00" stroke-width="0.3"><path d="
M 326.00 113.00 
C 328.32 103.24 326.35 91.51 327.00 81.00
C 288.83 80.33 249.35 82.33 212.00 80.00
C 204.86 83.46 213.07 99.79 210.00 108.00 C 206.93 116.21 213.91 126.97 210.00 137.00 C 206.09 147.03 222.09 152.85 222.00 142.00 C 221.91 131.15 222.07 126.06 228.25 119.25 C 234.43 112.43 238.83 109.03 247.00 108.00 C 255.17 106.97 263.27 110.03 268.75 115.25 C 274.24 120.46 276.56 129.77 281.70 120.70 C 286.83 111.63 292.87 114.73 300.78 110.78 C 308.68 106.82 318.97 112.57 326.00 113.00
M 322.00 86.00 
C 322.00 92.67 322.00 99.33 322.00 106.00
C 306.75 106.53 288.25 102.49 278.00 116.00
C 267.57 105.18 251.39 98.08 236.93 104.93 C 222.46 111.78 215.26 127.23 215.00 142.00
C 212.67 124.24 214.66 104.51 214.00 86.00
C 250.00 86.00 286.00 86.00 322.00 86.00 Z"/>
</g>
<g fill="None" fill-opacity="0.0" stroke="#FCAC6C" stroke-opacity="1.00" stroke-width="0.3"><path d="
M 326.00 113.00 
C 329.87 113.03 327.46 103.01 328.00 98.00 C 328.54 92.99 327.60 85.26 328.00 80.00
C 320.19 80.11 311.74 79.86 304.00 80.00 C 296.26 80.14 288.59 79.72 281.00 80.00 C 273.41 80.28 265.40 79.38 258.00 80.00 C 250.60 80.62 242.02 78.64 235.00 80.00 C 227.98 81.36 218.22 76.99 212.00 80.00
C 249.35 82.33 288.83 80.33 327.00 81.00
C 326.35 91.51 328.32 103.24 326.00 113.00 Z"/>
</g>
<g fill="None" fill-opacity="0.0" stroke="#FEFDFC" stroke-opacity="1.00" stroke-width="0.3"><path d="
M 322.00 86.00 
C 286.00 86.00 250.00 86.00 214.00 86.00
C 214.66 104.51 212.67 124.24 215.00 142.00
C 215.26 127.23 222.46 111.78 236.93 104.93 C 251.39 98.08 267.57 105.18 278.00 116.00
C 288.25 102.49 306.75 106.53 322.00 106.00
C 322.00 99.33 322.00 92.67 322.00 86.00 Z"/>
</g>
<g fill="None" fill-opacity="0.0" stroke="#FAF7F7" stroke-opacity="1.00" stroke-width="0.3"><path d="
M 60.00 168.00 
C 64.69 168.72 72.79 168.90 77.00 167.00
C 80.69 165.27 82.09 161.53 83.00 158.00
C 88.73 165.12 99.47 169.89 109.00 169.00
C 112.53 168.26 115.53 168.27 119.00 169.00
C 123.75 171.19 133.77 170.57 134.00 164.00
C 141.29 167.77 152.54 173.96 157.00 163.00
C 159.32 153.77 156.56 142.64 157.00 133.00 C 157.44 123.36 157.99 111.68 157.00 102.00
C 157.98 92.99 145.08 90.83 139.25 96.25 C 133.43 101.68 136.92 113.60 136.00 121.00
C 127.49 108.68 115.89 111.54 102.00 110.00 C 88.11 108.46 78.19 120.08 89.00 132.00
C 81.49 132.04 84.78 149.23 79.02 147.98 C 73.27 146.72 62.83 146.40 56.69 145.31 C 50.56 144.21 45.74 138.83 44.00 133.00 C 42.26 127.18 42.34 117.71 49.00 115.00
C 56.90 111.79 67.42 115.90 76.00 114.00
C 88.64 109.33 83.98 92.08 72.00 92.00 C 60.02 91.92 46.27 91.12 36.75 97.75 C 27.23 104.39 23.24 113.22 22.00 124.00 C 20.76 134.78 25.57 146.39 32.75 154.25 C 39.94 162.11 50.35 165.27 60.00 168.00
M 75.00 96.00 
C 87.31 99.74 75.91 114.10 67.00 110.00 C 58.09 105.90 46.49 110.53 41.75 116.75 C 37.01 122.98 36.91 135.19 43.30 140.70 C 49.69 146.21 55.06 153.40 66.00 150.00 C 76.94 146.60 82.77 162.33 70.99 163.99 C 59.22 165.65 53.46 161.83 44.77 158.23 C 36.08 154.63 33.48 149.13 29.08 141.92 C 24.67 134.72 25.05 121.32 28.32 114.32 C 31.60 107.33 36.30 100.14 44.08 98.08 C 51.86 96.03 66.63 93.46 75.00 96.00
M 151.00 98.00 
C 158.16 100.81 152.22 115.26 154.00 122.00 C 155.78 128.74 152.12 141.61 154.00 149.00 C 155.88 156.39 152.90 168.75 143.98 164.02 C 135.05 159.29 141.76 148.79 140.00 141.00 C 138.24 133.21 141.43 121.79 140.00 114.00 C 138.57 106.21 140.08 93.71 151.00 98.00
M 118.00 162.00 
C 108.29 167.07 93.22 166.80 86.75 155.25 C 80.28 143.69 94.10 128.27 106.00 130.00
C 102.33 126.25 86.78 130.09 88.78 119.78 C 90.78 109.47 105.05 115.19 113.00 114.00 C 120.95 112.81 128.40 116.56 131.30 124.70 C 134.21 132.83 129.70 144.97 132.00 154.00 C 134.30 163.03 124.51 171.82 118.00 162.00 Z"/>
</g>
<g fill="None" fill-opacity="0.0" stroke="#FCFAF9" stroke-opacity="1.00" stroke-width="0.3"><path d="
M 161.00 117.00 
C 161.52 123.94 160.09 134.20 161.00 142.00 C 161.91 149.80 157.88 161.23 164.00 167.00
C 175.77 175.75 181.52 162.45 180.00 152.00 C 178.48 141.55 180.63 125.24 179.26 115.75 C 177.89 106.25 184.45 92.85 170.00 92.00 C 155.56 91.16 160.36 108.58 161.00 117.00
M 176.00 112.00 
C 167.93 115.79 157.78 105.04 165.75 97.75 C 173.73 90.47 179.22 104.81 176.00 112.00
M 176.00 118.00 
C 177.79 131.41 173.61 139.01 176.00 153.00 C 178.39 166.99 162.38 168.30 164.00 154.00 C 165.62 139.70 162.78 131.73 164.00 118.00
C 168.00 118.00 172.00 118.00 176.00 118.00 Z"/>
</g>
<g fill="None" fill-opacity="0.0" stroke="#7E3E9C" stroke-opacity="1.00" stroke-width="0.3"><path d="
M 75.00 96.00 
C 66.63 93.46 51.86 96.03 44.08 98.08 C 36.30 100.14 31.60 107.33 28.32 114.32 C 25.05 121.32 24.67 134.72 29.08 141.92 C 33.48 149.13 36.08 154.63 44.77 158.23 C 53.46 161.83 59.22 165.65 70.99 163.99 C 82.77 162.33 76.94 146.60 66.00 150.00 C 55.06 153.40 49.69 146.21 43.30 140.70 C 36.91 135.19 37.01 122.98 41.75 116.75 C 46.49 110.53 58.09 105.90 67.00 110.00 C 75.91 114.10 87.31 99.74 75.00 96.00 Z"/>
</g>
<g fill="None" fill-opacity="0.0" stroke="#833F9D" stroke-opacity="1.00" stroke-width="0.3"><path d="
M 176.00 112.00 
C 179.22 104.81 173.73 90.47 165.75 97.75 C 157.78 105.04 167.93 115.79 176.00 112.00 Z"/>
</g>
<g fill="None" fill-opacity="0.0" stroke="#7B3E9B" stroke-opacity="1.00" stroke-width="0.3"><path d="
M 151.00 98.00 
C 140.08 93.71 138.57 106.21 140.00 114.00 C 141.43 121.79 138.24 133.21 140.00 141.00 C 141.76 148.79 135.05 159.29 143.98 164.02 C 152.90 168.75 155.88 156.39 154.00 149.00 C 152.12 141.61 155.78 128.74 154.00 122.00 C 152.22 115.26 158.16 100.81 151.00 98.00 Z"/>
</g>
<g fill="None" fill-opacity="0.0" stroke="#FEFBE7" stroke-opacity="1.00" stroke-width="0.3"><path d="
M 157.00 163.00 
C 160.41 154.62 157.40 141.50 158.00 132.00 C 158.60 122.50 158.93 110.71 157.00 102.00
C 157.99 111.68 157.44 123.36 157.00 133.00 C 156.56 142.64 159.32 153.77 157.00 163.00 Z"/>
</g>
<g fill="None" fill-opacity="0.0" stroke="#7B3E98" stroke-opacity="1.00" stroke-width="0.3"><path d="
M 240.00 144.00 
C 249.57 144.38 257.24 143.49 267.00 144.00 C 276.75 144.50 274.81 132.42 271.92 126.08 C 269.04 119.73 264.82 115.56 258.02 112.98 C 251.23 110.39 241.75 112.18 236.70 116.70 C 231.64 121.21 226.56 124.91 226.00 132.00 C 225.44 139.09 224.83 150.31 230.25 154.75 C 235.66 159.20 240.46 165.66 248.00 164.00 C 255.54 162.34 266.59 169.61 273.07 162.07 C 279.55 154.54 264.94 149.64 258.00 152.00 C 251.06 154.36 242.72 148.98 240.00 144.00
M 258.00 130.00 
C 252.67 130.00 247.33 130.00 242.00 130.00
C 243.75 122.35 256.20 122.79 258.00 130.00 Z"/>
</g>
<g fill="None" fill-opacity="0.0" stroke="#FDAB64" stroke-opacity="1.00" stroke-width="0.3"><path d="
M 49.00 115.00 
C 57.56 112.85 67.95 116.97 76.00 114.00
C 67.42 115.90 56.90 111.79 49.00 115.00 Z"/>
</g>
<g fill="None" fill-opacity="0.0" stroke="#7A3E98" stroke-opacity="1.00" stroke-width="0.3"><path d="
M 118.00 162.00 
C 124.51 171.82 134.30 163.03 132.00 154.00 C 129.70 144.97 134.21 132.83 131.30 124.70 C 128.40 116.56 120.95 112.81 113.00 114.00 C 105.05 115.19 90.78 109.47 88.78 119.78 C 86.78 130.09 102.33 126.25 106.00 130.00
C 94.10 128.27 80.28 143.69 86.75 155.25 C 93.22 166.80 108.29 167.07 118.00 162.00
M 118.00 140.00 
C 121.09 147.31 104.71 158.16 99.26 150.74 C 93.80 143.32 113.25 140.29 118.00 140.00 Z"/>
</g>
<g fill="None" fill-opacity="0.0" stroke="#7E3E9A" stroke-opacity="1.00" stroke-width="0.3"><path d="
M 324.00 152.00 
C 313.70 152.67 302.74 151.93 295.25 144.75 C 287.77 137.56 295.87 122.00 308.00 128.00 C 320.13 134.00 330.62 116.58 318.00 114.00 C 305.38 111.42 297.11 114.36 287.75 119.75 C 278.40 125.14 278.51 137.97 281.23 146.77 C 283.95 155.57 293.18 160.05 301.31 162.69 C 309.43 165.33 328.73 166.86 324.00 152.00 Z"/>
</g>
<g fill="None" fill-opacity="0.0" stroke="#FEF1D8" stroke-opacity="1.00" stroke-width="0.3"><path d="
M 164.00 167.00 
C 157.88 161.23 161.91 149.80 161.00 142.00 C 160.09 134.20 161.52 123.94 161.00 117.00
C 160.68 125.07 159.00 135.67 160.00 144.00 C 161.00 152.33 156.76 161.61 164.00 167.00 Z"/>
</g>
<g fill="None" fill-opacity="0.0" stroke="#FEFDFC" stroke-opacity="1.00" stroke-width="0.3"><path d="
M 80.00 118.00 
C 73.00 122.46 51.11 114.08 48.33 124.33 C 45.55 134.58 57.54 141.87 68.00 142.00 C 78.46 142.13 83.91 129.36 80.00 118.00 Z"/>
</g>
<g fill="None" fill-opacity="0.0" stroke="#7F3E9E" stroke-opacity="1.00" stroke-width="0.3"><path d="
M 176.00 118.00 
C 172.00 118.00 168.00 118.00 164.00 118.00
C 162.78 131.73 165.62 139.70 164.00 154.00 C 162.38 168.30 178.39 166.99 176.00 153.00 C 173.61 139.01 177.79 131.41 176.00 118.00 Z"/>
</g>
<g fill="None" fill-opacity="0.0" stroke="#F5F1F5" stroke-opacity="1.00" stroke-width="0.3"><path d="
M 258.00 130.00 
C 256.20 122.79 243.75 122.35 242.00 130.00
C 247.33 130.00 252.67 130.00 258.00 130.00 Z"/>
</g>
<g fill="None" fill-opacity="0.0" stroke="#FF7431" stroke-opacity="1.00" stroke-width="0.3"><path d="
M 320.00 132.00 
C 313.87 133.91 305.28 130.88 299.00 133.00
C 291.29 138.00 300.23 145.15 306.78 146.22 C 313.32 147.30 322.22 147.61 328.00 151.00
C 328.00 143.67 328.00 136.33 328.00 129.00
C 325.03 129.12 322.72 131.15 320.00 132.00
M 322.00 136.00 
C 324.38 145.81 303.32 144.35 302.00 136.00
C 308.67 136.00 315.33 136.00 322.00 136.00 Z"/>
</g>
<g fill="None" fill-opacity="0.0" stroke="#FCA967" stroke-opacity="1.00" stroke-width="0.3"><path d="
M 299.00 133.00 
C 305.28 130.88 313.87 133.91 320.00 132.00
C 313.42 133.16 304.74 130.03 299.00 133.00 Z"/>
</g>
<g fill="None" fill-opacity="0.0" stroke="#FEFBF8" stroke-opacity="1.00" stroke-width="0.3"><path d="
M 322.00 136.00 
C 315.33 136.00 308.67 136.00 302.00 136.00
C 303.32 144.35 324.38 145.81 322.00 136.00 Z"/>
</g>
<g fill="None" fill-opacity="0.0" stroke="#F7F5F9" stroke-opacity="1.00" stroke-width="0.3"><path d="
M 118.00 140.00 
C 113.25 140.29 93.80 143.32 99.26 150.74 C 104.71 158.16 121.09 147.31 118.00 140.00 Z"/>
</g>
<g fill="None" fill-opacity="0.0" stroke="#FDA95F" stroke-opacity="1.00" stroke-width="0.3"><path d="
M 60.00 168.00 
C 65.05 169.43 72.29 170.04 77.00 167.00
C 72.79 168.90 64.69 168.72 60.00 168.00 Z"/>
</g>
<g fill="None" fill-opacity="0.0" stroke="#FCB279" stroke-opacity="1.00" stroke-width="0.3"><path d="
M 109.00 169.00 
C 112.14 168.71 115.86 168.71 119.00 169.00
C 115.53 168.27 112.53 168.26 109.00 169.00 Z"/>
</g>
<g fill="None" fill-opacity="0.0" stroke="#FDAA65" stroke-opacity="1.00" stroke-width="0.3"><path d="
M 271.00 168.00 
C 264.99 169.80 252.24 168.95 246.00 168.00
C 251.86 169.66 265.22 170.70 271.00 168.00 Z"/>
</g>
<g fill="None" fill-opacity="0.0" stroke="#FEB894" stroke-opacity="1.00" stroke-width="0.3"><path d="
M 321.00 173.00 
C 315.94 173.45 310.06 173.45 305.00 173.00
C 310.06 174.03 315.88 174.04 321.00 173.00 Z"/>
</g>
<g fill="" fill-opacity="1.00" stroke="None">
<path d="
M 0.00 196.00 
L 400.00 196.00
L 400.00 0.00
L 110.00 0.00
C 118.20 2.57 129.19 4.48 136.75 12.25 C 144.31 20.01 149.78 27.93 150.00 39.00
C 150.05 41.66 150.00 44.34 150.00 47.00
C 150.00 55.05 147.09 62.69 141.75 68.75 C 136.41 74.81 131.49 79.24 123.92 81.92 C 116.36 84.61 103.91 84.97 95.93 83.07 C 87.94 81.17 82.67 77.08 76.75 71.25 C 70.84 65.41 68.77 57.91 67.01 49.99 C 65.25 42.07 66.14 31.09 69.92 23.92 C 73.71 16.76 78.49 12.83 84.70 7.70 C 90.90 2.57 102.47 2.90 108.00 0.00
L 0.00 0.00
L 0.00 196.00
M 321.00 173.00 
C 315.88 174.04 310.06 174.03 305.00 173.00
C 296.70 172.27 288.79 168.25 282.00 164.00
C 279.48 170.87 274.46 173.71 267.00 174.00 C 259.53 174.29 250.15 174.14 243.00 172.00 C 235.84 169.87 232.11 167.00 225.92 171.92 C 219.73 176.84 209.70 172.98 202.78 173.22 C 195.85 173.46 191.44 167.02 186.00 164.00
C 183.48 170.06 177.81 176.10 170.00 174.00 C 162.19 171.90 156.06 173.91 148.00 174.00 C 139.94 174.09 135.31 172.95 127.99 175.99 C 120.67 179.03 111.81 171.10 104.00 174.00 C 96.19 176.90 90.42 169.63 84.00 168.00
C 73.80 175.52 56.60 174.22 44.78 169.22 C 32.95 164.23 25.53 155.84 20.02 143.98 C 14.52 132.12 15.03 115.60 22.92 103.92 C 30.80 92.24 42.81 87.62 57.00 88.00 C 71.19 88.38 91.10 85.64 90.00 106.00
C 102.66 104.57 118.57 105.42 132.00 108.00
C 128.07 97.64 137.87 84.52 149.00 88.00 C 160.13 91.48 170.21 85.74 182.00 89.00
C 177.54 82.55 172.77 80.55 172.00 71.00 C 171.23 61.45 178.76 59.15 181.99 51.99 C 185.22 44.84 190.73 39.71 199.00 40.00 C 207.27 40.29 214.61 44.71 214.00 54.00
C 250.00 54.00 286.00 54.00 322.00 54.00
C 316.82 37.66 350.15 28.86 353.92 46.08 C 357.69 63.30 351.26 86.26 354.00 104.00
C 365.63 103.92 378.18 108.88 381.92 121.08 C 385.67 133.27 384.17 150.06 383.22 163.22 C 382.27 176.38 360.37 178.16 354.00 168.00
C 345.07 177.60 331.77 171.89 321.00 173.00 Z"/>
</g>
<g fill="#7D4CA2" fill-opacity="1.00" stroke="None">
<path d="
M 150.00 47.00 
C 149.82 47.52 148.20 48.54 148.00 49.00
C 147.68 53.72 145.87 57.12 144.00 61.00
C 137.98 73.45 129.99 73.52 124.00 61.00
C 118.64 49.78 118.81 37.36 124.00 26.00
C 125.64 22.42 129.46 15.22 134.08 14.08 C 138.70 12.95 143.68 22.76 145.00 26.00
C 146.36 29.34 146.85 32.70 148.00 36.00
C 148.23 36.65 149.84 38.39 150.00 39.00
C 149.78 27.93 144.31 20.01 136.75 12.25 C 129.19 4.48 118.20 2.57 110.00 0.00
L 108.00 0.00
C 102.47 2.90 90.90 2.57 84.70 7.70 C 78.49 12.83 73.71 16.76 69.92 23.92 C 66.14 31.09 65.25 42.07 67.01 49.99 C 68.77 57.91 70.84 65.41 76.75 71.25 C 82.67 77.08 87.94 81.17 95.93 83.07 C 103.91 84.97 116.36 84.61 123.92 81.92 C 131.49 79.24 136.41 74.81 141.75 68.75 C 147.09 62.69 150.00 55.05 150.00 47.00
M 99.00 13.00 
C 95.22 12.32 90.42 12.81 87.00 14.00
C 88.32 8.40 96.18 6.16 104.00 6.00 C 111.83 5.84 119.12 5.64 126.69 10.31 C 134.27 14.97 123.26 19.33 121.23 25.23 C 119.20 31.13 116.08 41.91 118.00 49.00 C 119.92 56.09 119.61 62.17 125.75 68.25 C 131.90 74.32 125.82 77.27 117.93 78.93 C 110.03 80.59 101.70 80.30 94.00 78.00
C 99.73 73.67 108.95 70.64 111.92 61.92 C 114.89 53.20 115.86 40.94 114.00 32.00 C 112.15 23.06 107.18 16.36 99.00 13.00
M 98.00 16.00 
C 104.03 18.04 105.80 21.65 108.00 27.00
C 112.54 38.04 113.44 49.99 108.00 61.00
C 98.91 79.38 82.29 70.49 77.68 56.32 C 73.06 42.15 74.56 21.70 90.00 16.00
C 92.96 14.91 95.10 15.02 98.00 16.00
M 73.00 39.00 
C 73.01 40.63 72.98 45.48 73.00 47.00
C 73.44 48.94 73.59 50.98 74.00 53.00
C 74.35 54.69 76.83 58.55 75.00 60.00
C 73.51 58.84 72.98 56.66 72.00 55.00
C 67.81 44.20 70.26 29.41 78.00 22.00
C 75.55 27.44 73.57 32.94 73.00 39.00 Z"/>
</g>
<g fill="#F8F8FB" fill-opacity="1.00" stroke="None">
<path d="
M 87.00 14.00 
C 89.27 10.28 96.01 12.06 99.00 13.00
C 107.18 16.36 112.15 23.06 114.00 32.00 C 115.86 40.94 114.89 53.20 111.92 61.92 C 108.95 70.64 99.73 73.67 94.00 78.00
C 101.70 80.30 110.03 80.59 117.93 78.93 C 125.82 77.27 131.90 74.32 125.75 68.25 C 119.61 62.17 119.92 56.09 118.00 49.00 C 116.08 41.91 119.20 31.13 121.23 25.23 C 123.26 19.33 134.27 14.97 126.69 10.31 C 119.12 5.64 111.83 5.84 104.00 6.00 C 96.18 6.16 88.32 8.40 87.00 14.00 Z"/>
</g>
<g fill="#A39BD1" fill-opacity="1.00" stroke="None">
<path d="
M 87.00 14.00 
C 90.42 12.81 95.22 12.32 99.00 13.00
C 96.01 12.06 89.27 10.28 87.00 14.00 Z"/>
</g>
<g fill="#F76731" fill-opacity="1.00" stroke="None">
<path d="
M 124.00 26.00 
C 126.01 24.92 131.56 25.84 134.00 26.00 C 136.44 26.16 142.88 24.79 145.00 26.00
C 143.68 22.76 138.70 12.95 134.08 14.08 C 129.46 15.22 125.64 22.42 124.00 26.00 Z"/>
</g>
<g fill="#C95766" fill-opacity="1.00" stroke="None">
<path d="
M 90.00 16.00 
C 92.03 15.55 95.95 15.60 98.00 16.00
C 95.10 15.02 92.96 14.91 90.00 16.00 Z"/>
</g>
<g fill="#F86A2C" fill-opacity="1.00" stroke="None">
<path d="
M 108.00 61.00 
C 101.70 60.77 94.52 61.75 89.00 60.00
C 78.76 56.76 75.41 43.52 79.93 34.93 C 84.44 26.33 100.31 21.78 108.00 27.00
C 105.80 21.65 104.03 18.04 98.00 16.00
C 95.95 15.60 92.03 15.55 90.00 16.00
C 74.56 21.70 73.06 42.15 77.68 56.32 C 82.29 70.49 98.91 79.38 108.00 61.00
M 97.00 63.00 
C 98.70 64.22 100.01 66.68 99.00 69.00
C 97.62 72.18 89.37 72.16 88.00 69.00
C 86.97 66.64 88.29 64.23 90.00 63.00
C 92.01 61.55 95.02 61.57 97.00 63.00 Z"/>
</g>
<g fill="#EAE8F2" fill-opacity="1.00" stroke="None">
<path d="
M 72.00 55.00 
C 71.78 56.10 73.77 54.94 74.00 53.00
C 73.59 50.98 73.44 48.94 73.00 47.00
C 72.31 43.99 72.40 41.94 73.00 39.00
C 73.57 32.94 75.55 27.44 78.00 22.00
C 70.26 29.41 67.81 44.20 72.00 55.00 Z"/>
</g>
<g fill="#F6F1F1" fill-opacity="1.00" stroke="None">
<path d="
M 89.00 60.00 
C 95.09 61.09 102.72 58.35 108.00 61.00
C 113.44 49.99 112.54 38.04 108.00 27.00
C 100.31 21.78 84.44 26.33 79.93 34.93 C 75.41 43.52 78.76 56.76 89.00 60.00
M 100.00 31.00 
C 117.00 34.44 107.88 63.45 91.33 56.67 C 74.78 49.89 83.89 27.74 100.00 31.00 Z"/>
</g>
<g fill="#FDFAFB" fill-opacity="1.00" stroke="None">
<path d="
M 124.00 61.00 
C 126.61 62.24 141.38 62.23 144.00 61.00
C 145.87 57.12 147.68 53.72 148.00 49.00
C 148.28 44.85 148.38 40.14 148.00 36.00
C 146.85 32.70 146.36 29.34 145.00 26.00
C 142.88 24.79 136.44 26.16 134.00 26.00 C 131.56 25.84 126.01 24.92 124.00 26.00
C 118.81 37.36 118.64 49.78 124.00 61.00 Z"/>
</g>
<g fill="#7B6998" fill-opacity="1.00" stroke="None">
<path d="
M 100.00 31.00 
C 83.89 27.74 74.78 49.89 91.33 56.67 C 107.88 63.45 117.00 34.44 100.00 31.00
M 101.00 33.00 
C 114.68 37.15 106.07 61.82 91.78 55.22 C 77.49 48.62 85.58 28.32 101.00 33.00 Z"/>
</g>
<g fill="#F9F8F9" fill-opacity="1.00" stroke="None">
<path d="
M 101.00 33.00 
C 85.58 28.32 77.49 48.62 91.78 55.22 C 106.07 61.82 114.68 37.15 101.00 33.00
M 98.00 45.00 
C 95.04 44.61 91.30 42.26 91.00 39.00
C 94.05 39.72 97.03 41.84 98.00 45.00 Z"/>
</g>
<g fill="#BC7DA5" fill-opacity="1.00" stroke="None">
<path d="
M 148.00 49.00 
C 148.20 48.54 149.82 47.52 150.00 47.00
C 150.00 44.34 150.05 41.66 150.00 39.00
C 149.84 38.39 148.23 36.65 148.00 36.00
C 148.38 40.14 148.28 44.85 148.00 49.00 Z"/>
</g>
<g fill="#FF7633" fill-opacity="1.00" stroke="None">
<path d="
M 305.00 173.00 
C 310.06 173.45 315.94 173.45 321.00 173.00
C 331.77 171.89 345.07 177.60 354.00 168.00
C 360.37 178.16 382.27 176.38 383.22 163.22 C 384.17 150.06 385.67 133.27 381.92 121.08 C 378.18 108.88 365.63 103.92 354.00 104.00
C 351.26 86.26 357.69 63.30 353.92 46.08 C 350.15 28.86 316.82 37.66 322.00 54.00
C 286.00 54.00 250.00 54.00 214.00 54.00
C 214.61 44.71 207.27 40.29 199.00 40.00 C 190.73 39.71 185.22 44.84 181.99 51.99 C 178.76 59.15 171.23 61.45 172.00 71.00 C 172.77 80.55 177.54 82.55 182.00 89.00
C 170.21 85.74 160.13 91.48 149.00 88.00 C 137.87 84.52 128.07 97.64 132.00 108.00
C 118.57 105.42 102.66 104.57 90.00 106.00
C 91.10 85.64 71.19 88.38 57.00 88.00 C 42.81 87.62 30.80 92.24 22.92 103.92 C 15.03 115.60 14.52 132.12 20.02 143.98 C 25.53 155.84 32.95 164.23 44.78 169.22 C 56.60 174.22 73.80 175.52 84.00 168.00
C 90.42 169.63 96.19 176.90 104.00 174.00 C 111.81 171.10 120.67 179.03 127.99 175.99 C 135.31 172.95 139.94 174.09 148.00 174.00 C 156.06 173.91 162.19 171.90 170.00 174.00 C 177.81 176.10 183.48 170.06 186.00 164.00
C 191.44 167.02 195.85 173.46 202.78 173.22 C 209.70 172.98 219.73 176.84 225.92 171.92 C 232.11 167.00 235.84 169.87 243.00 172.00 C 250.15 174.14 259.53 174.29 267.00 174.00 C 274.46 173.71 279.48 170.87 282.00 164.00
C 288.79 168.25 296.70 172.27 305.00 173.00
M 271.00 168.00 
C 265.22 170.70 251.86 169.66 246.00 168.00
C 240.67 166.49 237.60 166.13 232.77 162.23 C 227.95 158.32 226.67 165.12 221.92 166.92 C 217.18 168.73 208.03 168.45 203.00 168.00 C 197.97 167.55 193.87 164.43 190.75 160.25 C 187.64 156.07 188.09 149.78 188.00 144.00 C 187.91 138.22 188.06 130.14 188.00 124.00 C 187.94 117.86 188.07 110.14 188.00 104.00 C 187.93 97.86 188.14 89.80 188.00 84.00 C 187.86 78.20 178.32 80.40 178.01 74.99 C 177.69 69.58 173.84 64.54 180.75 61.75 C 187.66 58.97 187.17 56.53 188.78 49.78 C 190.39 43.03 199.74 46.23 204.07 46.93 C 208.41 47.63 209.45 56.42 211.00 60.00
C 230.35 60.45 250.75 59.39 270.00 60.00 C 289.25 60.61 308.93 57.95 327.00 62.00
C 325.77 53.07 331.22 37.16 342.69 43.31 C 354.16 49.46 349.13 61.77 350.00 73.00 C 350.87 84.23 349.35 98.49 350.00 110.00
C 362.78 105.14 379.28 119.15 378.00 131.00 C 376.72 142.85 384.30 169.23 366.99 169.99 C 349.69 170.75 362.28 138.89 357.00 130.00
C 347.09 130.51 348.98 147.03 350.00 154.00 C 351.02 160.97 344.12 174.49 335.78 169.22 C 327.43 163.95 322.93 166.22 313.00 168.00 C 303.07 169.78 297.03 164.52 288.77 161.23 C 280.51 157.94 280.96 145.80 272.00 146.00
C 278.71 152.07 280.65 163.00 271.00 168.00
M 76.00 114.00 
C 67.95 116.97 57.56 112.85 49.00 115.00
C 42.34 117.71 42.26 127.18 44.00 133.00 C 45.74 138.83 50.56 144.21 56.69 145.31 C 62.83 146.40 73.27 146.72 79.02 147.98 C 84.78 149.23 81.49 132.04 89.00 132.00
C 78.19 120.08 88.11 108.46 102.00 110.00 C 115.89 111.54 127.49 108.68 136.00 121.00
C 136.92 113.60 133.43 101.68 139.25 96.25 C 145.08 90.83 157.98 92.99 157.00 102.00
C 158.93 110.71 158.60 122.50 158.00 132.00 C 157.40 141.50 160.41 154.62 157.00 163.00
C 152.54 173.96 141.29 167.77 134.00 164.00
C 133.77 170.57 123.75 171.19 119.00 169.00
C 115.86 168.71 112.14 168.71 109.00 169.00
C 99.47 169.89 88.73 165.12 83.00 158.00
C 82.09 161.53 80.69 165.27 77.00 167.00
C 72.29 170.04 65.05 169.43 60.00 168.00
C 50.35 165.27 39.94 162.11 32.75 154.25 C 25.57 146.39 20.76 134.78 22.00 124.00 C 23.24 113.22 27.23 104.39 36.75 97.75 C 46.27 91.12 60.02 91.92 72.00 92.00 C 83.98 92.08 88.64 109.33 76.00 114.00
M 164.00 167.00 
C 156.76 161.61 161.00 152.33 160.00 144.00 C 159.00 135.67 160.68 125.07 161.00 117.00
C 160.36 108.58 155.56 91.16 170.00 92.00 C 184.45 92.85 177.89 106.25 179.26 115.75 C 180.63 125.24 178.48 141.55 180.00 152.00 C 181.52 162.45 175.77 175.75 164.00 167.00
M 80.00 118.00 
C 83.91 129.36 78.46 142.13 68.00 142.00 C 57.54 141.87 45.55 134.58 48.33 124.33 C 51.11 114.08 73.00 122.46 80.00 118.00 Z"/>
</g>
<g fill="#A5A0D1" fill-opacity="1.00" stroke="None">
<path d="
M 73.00 47.00 
C 73.00 44.33 73.00 41.67 73.00 39.00
C 72.40 41.94 72.31 43.99 73.00 47.00 Z"/>
</g>
<g fill="#361FA1" fill-opacity="1.00" stroke="None">
<path d="
M 73.00 47.00 
C 72.98 45.48 73.01 40.63 73.00 39.00
C 73.00 41.67 73.00 44.33 73.00 47.00 Z"/>
</g>
<g fill="#584C8D" fill-opacity="1.00" stroke="None">
<path d="
M 98.00 45.00 
C 97.03 41.84 94.05 39.72 91.00 39.00
C 91.30 42.26 95.04 44.61 98.00 45.00 Z"/>
</g>
<g fill="#FCF9F8" fill-opacity="1.00" stroke="None">
<path d="
M 246.00 168.00 
C 252.24 168.95 264.99 169.80 271.00 168.00
C 280.65 163.00 278.71 152.07 272.00 146.00
C 280.96 145.80 280.51 157.94 288.77 161.23 C 297.03 164.52 303.07 169.78 313.00 168.00 C 322.93 166.22 327.43 163.95 335.78 169.22 C 344.12 174.49 351.02 160.97 350.00 154.00 C 348.98 147.03 347.09 130.51 357.00 130.00
C 362.28 138.89 349.69 170.75 366.99 169.99 C 384.30 169.23 376.72 142.85 378.00 131.00 C 379.28 119.15 362.78 105.14 350.00 110.00
C 349.35 98.49 350.87 84.23 350.00 73.00 C 349.13 61.77 354.16 49.46 342.69 43.31 C 331.22 37.16 325.77 53.07 327.00 62.00
C 308.93 57.95 289.25 60.61 270.00 60.00 C 250.75 59.39 230.35 60.45 211.00 60.00
C 209.45 56.42 208.41 47.63 204.07 46.93 C 199.74 46.23 190.39 43.03 188.78 49.78 C 187.17 56.53 187.66 58.97 180.75 61.75 C 173.84 64.54 177.69 69.58 178.01 74.99 C 178.32 80.40 187.86 78.20 188.00 84.00 C 188.14 89.80 187.93 97.86 188.00 104.00 C 188.07 110.14 187.94 117.86 188.00 124.00 C 188.06 130.14 187.91 138.22 188.00 144.00 C 188.09 149.78 187.64 156.07 190.75 160.25 C 193.87 164.43 197.97 167.55 203.00 168.00 C 208.03 168.45 217.18 168.73 221.92 166.92 C 226.67 165.12 227.95 158.32 232.77 162.23 C 237.60 166.13 240.67 166.49 246.00 168.00
M 346.00 116.00 
C 352.12 113.74 360.52 111.84 366.69 116.31 C 372.87 120.77 374.52 125.94 374.00 134.00 C 373.48 142.06 374.27 150.13 374.00 159.00 C 373.73 167.87 360.42 165.97 362.00 157.00 C 363.58 148.03 361.41 140.22 362.00 132.00 C 362.59 123.78 349.57 125.25 347.75 130.75 C 345.94 136.25 343.64 147.21 346.00 154.00 C 348.36 160.79 337.41 169.90 332.77 163.23 C 328.13 156.56 333.61 146.67 332.00 139.00 C 330.39 131.33 332.79 121.93 332.00 114.00 C 331.21 106.07 332.51 96.93 332.00 89.00 C 331.49 81.07 332.57 70.56 332.00 63.00 C 331.43 55.44 330.73 44.43 340.00 46.00 C 349.27 47.57 345.27 57.60 346.00 65.00 C 346.73 72.40 345.63 82.03 346.00 90.00 C 346.37 97.97 345.73 107.86 346.00 116.00
M 206.00 64.00 
C 220.11 64.37 236.08 63.50 250.00 64.00 C 263.92 64.50 280.77 63.04 294.00 64.00 C 307.23 64.96 328.53 57.47 326.00 76.00
C 286.00 76.00 246.00 76.00 206.00 76.00
C 206.00 101.33 206.00 126.67 206.00 152.00
C 212.00 152.00 218.00 152.00 224.00 152.00
C 229.49 166.10 202.79 169.85 195.75 160.25 C 188.72 150.64 192.95 132.74 192.00 120.00 C 191.05 107.26 192.71 89.22 192.00 76.00
C 178.47 81.65 178.45 58.37 192.00 64.00
C 191.40 57.50 191.07 49.74 199.00 50.00 C 206.94 50.27 205.88 57.84 206.00 64.00
M 326.00 113.00 
C 318.97 112.57 308.68 106.82 300.78 110.78 C 292.87 114.73 286.83 111.63 281.70 120.70 C 276.56 129.77 274.24 120.46 268.75 115.25 C 263.27 110.03 255.17 106.97 247.00 108.00 C 238.83 109.03 234.43 112.43 228.25 119.25 C 222.07 126.06 221.91 131.15 222.00 142.00 C 222.09 152.85 206.09 147.03 210.00 137.00 C 213.91 126.97 206.93 116.21 210.00 108.00 C 213.07 99.79 204.86 83.46 212.00 80.00
C 218.22 76.99 227.98 81.36 235.00 80.00 C 242.02 78.64 250.60 80.62 258.00 80.00 C 265.40 79.38 273.41 80.28 281.00 80.00 C 288.59 79.72 296.26 80.14 304.00 80.00 C 311.74 79.86 320.19 80.11 328.00 80.00
C 327.60 85.26 328.54 92.99 328.00 98.00 C 327.46 103.01 329.87 113.03 326.00 113.00
M 240.00 144.00 
C 242.72 148.98 251.06 154.36 258.00 152.00 C 264.94 149.64 279.55 154.54 273.07 162.07 C 266.59 169.61 255.54 162.34 248.00 164.00 C 240.46 165.66 235.66 159.20 230.25 154.75 C 224.83 150.31 225.44 139.09 226.00 132.00 C 226.56 124.91 231.64 121.21 236.70 116.70 C 241.75 112.18 251.23 110.39 258.02 112.98 C 264.82 115.56 269.04 119.73 271.92 126.08 C 274.81 132.42 276.75 144.50 267.00 144.00 C 257.24 143.49 249.57 144.38 240.00 144.00
M 324.00 152.00 
C 328.73 166.86 309.43 165.33 301.31 162.69 C 293.18 160.05 283.95 155.57 281.23 146.77 C 278.51 137.97 278.40 125.14 287.75 119.75 C 297.11 114.36 305.38 111.42 318.00 114.00 C 330.62 116.58 320.13 134.00 308.00 128.00 C 295.87 122.00 287.77 137.56 295.25 144.75 C 302.74 151.93 313.70 152.67 324.00 152.00
M 299.00 133.00 
C 304.74 130.03 313.42 133.16 320.00 132.00
C 322.72 131.15 325.03 129.12 328.00 129.00
C 328.00 136.33 328.00 143.67 328.00 151.00
C 322.22 147.61 313.32 147.30 306.78 146.22 C 300.23 145.15 291.29 138.00 299.00 133.00 Z"/>
</g>
<g fill="#7B3E9A" fill-opacity="1.00" stroke="None">
<path d="
M 346.00 116.00 
C 345.73 107.86 346.37 97.97 346.00 90.00 C 345.63 82.03 346.73 72.40 346.00 65.00 C 345.27 57.60 349.27 47.57 340.00 46.00 C 330.73 44.43 331.43 55.44 332.00 63.00 C 332.57 70.56 331.49 81.07 332.00 89.00 C 332.51 96.93 331.21 106.07 332.00 114.00 C 332.79 121.93 330.39 131.33 332.00 139.00 C 333.61 146.67 328.13 156.56 332.77 163.23 C 337.41 169.90 348.36 160.79 346.00 154.00 C 343.64 147.21 345.94 136.25 347.75 130.75 C 349.57 125.25 362.59 123.78 362.00 132.00 C 361.41 140.22 363.58 148.03 362.00 157.00 C 360.42 165.97 373.73 167.87 374.00 159.00 C 374.27 150.13 373.48 142.06 374.00 134.00 C 374.52 125.94 372.87 120.77 366.69 116.31 C 360.52 111.84 352.12 113.74 346.00 116.00 Z"/>
</g>
<g fill="#79409C" fill-opacity="1.00" stroke="None">
<path d="
M 206.00 64.00 
C 205.88 57.84 206.94 50.27 199.00 50.00 C 191.07 49.74 191.40 57.50 192.00 64.00
C 178.45 58.37 178.47 81.65 192.00 76.00
C 192.71 89.22 191.05 107.26 192.00 120.00 C 192.95 132.74 188.72 150.64 195.75 160.25 C 202.79 169.85 229.49 166.10 224.00 152.00
C 218.00 152.00 212.00 152.00 206.00 152.00
C 206.00 126.67 206.00 101.33 206.00 76.00
C 246.00 76.00 286.00 76.00 326.00 76.00
C 328.53 57.47 307.23 64.96 294.00 64.00 C 280.77 63.04 263.92 64.50 250.00 64.00 C 236.08 63.50 220.11 64.37 206.00 64.00 Z"/>
</g>
<g fill="#B6ACD8" fill-opacity="1.00" stroke="None">
<path d="
M 72.00 55.00 
C 72.98 56.66 73.51 58.84 75.00 60.00
C 76.83 58.55 74.35 54.69 74.00 53.00
C 73.77 54.94 71.78 56.10 72.00 55.00 Z"/>
</g>
<g fill="#FEDBB5" fill-opacity="1.00" stroke="None">
<path d="
M 108.00 61.00 
C 102.72 58.35 95.09 61.09 89.00 60.00
C 94.52 61.75 101.70 60.77 108.00 61.00 Z"/>
</g>
<g fill="#F46D33" fill-opacity="1.00" stroke="None">
<path d="
M 144.00 61.00 
C 141.38 62.23 126.61 62.24 124.00 61.00
C 129.99 73.52 137.98 73.45 144.00 61.00 Z"/>
</g>
<g fill="#F3A28E" fill-opacity="1.00" stroke="None">
<path d="
M 90.00 63.00 
C 90.96 62.57 96.04 62.57 97.00 63.00
C 95.02 61.57 92.01 61.55 90.00 63.00 Z"/>
</g>
<g fill="#FCF9F5" fill-opacity="1.00" stroke="None">
<path d="
M 88.00 69.00 
C 89.19 70.78 97.83 70.76 99.00 69.00
C 100.01 66.68 98.70 64.22 97.00 63.00
C 96.04 62.57 90.96 62.57 90.00 63.00
C 88.29 64.23 86.97 66.64 88.00 69.00 Z"/>
</g>
<g fill="#FDAD62" fill-opacity="1.00" stroke="None">
<path d="
M 99.00 69.00 
C 97.83 70.76 89.19 70.78 88.00 69.00
C 89.37 72.16 97.62 72.18 99.00 69.00 Z"/>
</g>
<g fill="#FF7633" fill-opacity="1.00" stroke="None">
<path d="
M 326.00 113.00 
C 328.32 103.24 326.35 91.51 327.00 81.00
C 288.83 80.33 249.35 82.33 212.00 80.00
C 204.86 83.46 213.07 99.79 210.00 108.00 C 206.93 116.21 213.91 126.97 210.00 137.00 C 206.09 147.03 222.09 152.85 222.00 142.00 C 221.91 131.15 222.07 126.06 228.25 119.25 C 234.43 112.43 238.83 109.03 247.00 108.00 C 255.17 106.97 263.27 110.03 268.75 115.25 C 274.24 120.46 276.56 129.77 281.70 120.70 C 286.83 111.63 292.87 114.73 300.78 110.78 C 308.68 106.82 318.97 112.57 326.00 113.00
M 322.00 86.00 
C 322.00 92.67 322.00 99.33 322.00 106.00
C 306.75 106.53 288.25 102.49 278.00 116.00
C 267.57 105.18 251.39 98.08 236.93 104.93 C 222.46 111.78 215.26 127.23 215.00 142.00
C 212.67 124.24 214.66 104.51 214.00 86.00
C 250.00 86.00 286.00 86.00 322.00 86.00 Z"/>
</g>
<g fill="#FCAC6C" fill-opacity="1.00" stroke="None">
<path d="
M 326.00 113.00 
C 329.87 113.03 327.46 103.01 328.00 98.00 C 328.54 92.99 327.60 85.26 328.00 80.00
C 320.19 80.11 311.74 79.86 304.00 80.00 C 296.26 80.14 288.59 79.72 281.00 80.00 C 273.41 80.28 265.40 79.38 258.00 80.00 C 250.60 80.62 242.02 78.64 235.00 80.00 C 227.98 81.36 218.22 76.99 212.00 80.00
C 249.35 82.33 288.83 80.33 327.00 81.00
C 326.35 91.51 328.32 103.24 326.00 113.00 Z"/>
</g>
<g fill="#FEFDFC" fill-opacity="1.00" stroke="None">
<path d="
M 322.00 86.00 
C 286.00 86.00 250.00 86.00 214.00 86.00
C 214.66 104.51 212.67 124.24 215.00 142.00
C 215.26 127.23 222.46 111.78 236.93 104.93 C 251.39 98.08 267.57 105.18 278.00 116.00
C 288.25 102.49 306.75 106.53 322.00 106.00
C 322.00 99.33 322.00 92.67 322.00 86.00 Z"/>
</g>
<g fill="#FAF7F7" fill-opacity="1.00" stroke="None">
<path d="
M 60.00 168.00 
C 64.69 168.72 72.79 168.90 77.00 167.00
C 80.69 165.27 82.09 161.53 83.00 158.00
C 88.73 165.12 99.47 169.89 109.00 169.00
C 112.53 168.26 115.53 168.27 119.00 169.00
C 123.75 171.19 133.77 170.57 134.00 164.00
C 141.29 167.77 152.54 173.96 157.00 163.00
C 159.32 153.77 156.56 142.64 157.00 133.00 C 157.44 123.36 157.99 111.68 157.00 102.00
C 157.98 92.99 145.08 90.83 139.25 96.25 C 133.43 101.68 136.92 113.60 136.00 121.00
C 127.49 108.68 115.89 111.54 102.00 110.00 C 88.11 108.46 78.19 120.08 89.00 132.00
C 81.49 132.04 84.78 149.23 79.02 147.98 C 73.27 146.72 62.83 146.40 56.69 145.31 C 50.56 144.21 45.74 138.83 44.00 133.00 C 42.26 127.18 42.34 117.71 49.00 115.00
C 56.90 111.79 67.42 115.90 76.00 114.00
C 88.64 109.33 83.98 92.08 72.00 92.00 C 60.02 91.92 46.27 91.12 36.75 97.75 C 27.23 104.39 23.24 113.22 22.00 124.00 C 20.76 134.78 25.57 146.39 32.75 154.25 C 39.94 162.11 50.35 165.27 60.00 168.00
M 75.00 96.00 
C 87.31 99.74 75.91 114.10 67.00 110.00 C 58.09 105.90 46.49 110.53 41.75 116.75 C 37.01 122.98 36.91 135.19 43.30 140.70 C 49.69 146.21 55.06 153.40 66.00 150.00 C 76.94 146.60 82.77 162.33 70.99 163.99 C 59.22 165.65 53.46 161.83 44.77 158.23 C 36.08 154.63 33.48 149.13 29.08 141.92 C 24.67 134.72 25.05 121.32 28.32 114.32 C 31.60 107.33 36.30 100.14 44.08 98.08 C 51.86 96.03 66.63 93.46 75.00 96.00
M 151.00 98.00 
C 158.16 100.81 152.22 115.26 154.00 122.00 C 155.78 128.74 152.12 141.61 154.00 149.00 C 155.88 156.39 152.90 168.75 143.98 164.02 C 135.05 159.29 141.76 148.79 140.00 141.00 C 138.24 133.21 141.43 121.79 140.00 114.00 C 138.57 106.21 140.08 93.71 151.00 98.00
M 118.00 162.00 
C 108.29 167.07 93.22 166.80 86.75 155.25 C 80.28 143.69 94.10 128.27 106.00 130.00
C 102.33 126.25 86.78 130.09 88.78 119.78 C 90.78 109.47 105.05 115.19 113.00 114.00 C 120.95 112.81 128.40 116.56 131.30 124.70 C 134.21 132.83 129.70 144.97 132.00 154.00 C 134.30 163.03 124.51 171.82 118.00 162.00 Z"/>
</g>
<g fill="#FCFAF9" fill-opacity="1.00" stroke="None">
<path d="
M 161.00 117.00 
C 161.52 123.94 160.09 134.20 161.00 142.00 C 161.91 149.80 157.88 161.23 164.00 167.00
C 175.77 175.75 181.52 162.45 180.00 152.00 C 178.48 141.55 180.63 125.24 179.26 115.75 C 177.89 106.25 184.45 92.85 170.00 92.00 C 155.56 91.16 160.36 108.58 161.00 117.00
M 176.00 112.00 
C 167.93 115.79 157.78 105.04 165.75 97.75 C 173.73 90.47 179.22 104.81 176.00 112.00
M 176.00 118.00 
C 177.79 131.41 173.61 139.01 176.00 153.00 C 178.39 166.99 162.38 168.30 164.00 154.00 C 165.62 139.70 162.78 131.73 164.00 118.00
C 168.00 118.00 172.00 118.00 176.00 118.00 Z"/>
</g>
<g fill="#7E3E9C" fill-opacity="1.00" stroke="None">
<path d="
M 75.00 96.00 
C 66.63 93.46 51.86 96.03 44.08 98.08 C 36.30 100.14 31.60 107.33 28.32 114.32 C 25.05 121.32 24.67 134.72 29.08 141.92 C 33.48 149.13 36.08 154.63 44.77 158.23 C 53.46 161.83 59.22 165.65 70.99 163.99 C 82.77 162.33 76.94 146.60 66.00 150.00 C 55.06 153.40 49.69 146.21 43.30 140.70 C 36.91 135.19 37.01 122.98 41.75 116.75 C 46.49 110.53 58.09 105.90 67.00 110.00 C 75.91 114.10 87.31 99.74 75.00 96.00 Z"/>
</g>
<g fill="#833F9D" fill-opacity="1.00" stroke="None">
<path d="
M 176.00 112.00 
C 179.22 104.81 173.73 90.47 165.75 97.75 C 157.78 105.04 167.93 115.79 176.00 112.00 Z"/>
</g>
<g fill="#7B3E9B" fill-opacity="1.00" stroke="None">
<path d="
M 151.00 98.00 
C 140.08 93.71 138.57 106.21 140.00 114.00 C 141.43 121.79 138.24 133.21 140.00 141.00 C 141.76 148.79 135.05 159.29 143.98 164.02 C 152.90 168.75 155.88 156.39 154.00 149.00 C 152.12 141.61 155.78 128.74 154.00 122.00 C 152.22 115.26 158.16 100.81 151.00 98.00 Z"/>
</g>
<g fill="#FEFBE7" fill-opacity="1.00" stroke="None">
<path d="
M 157.00 163.00 
C 160.41 154.62 157.40 141.50 158.00 132.00 C 158.60 122.50 158.93 110.71 157.00 102.00
C 157.99 111.68 157.44 123.36 157.00 133.00 C 156.56 142.64 159.32 153.77 157.00 163.00 Z"/>
</g>
<g fill="#7B3E98" fill-opacity="1.00" stroke="None">
<path d="
M 240.00 144.00 
C 249.57 144.38 257.24 143.49 267.00 144.00 C 276.75 144.50 274.81 132.42 271.92 126.08 C 269.04 119.73 264.82 115.56 258.02 112.98 C 251.23 110.39 241.75 112.18 236.70 116.70 C 231.64 121.21 226.56 124.91 226.00 132.00 C 225.44 139.09 224.83 150.31 230.25 154.75 C 235.66 159.20 240.46 165.66 248.00 164.00 C 255.54 162.34 266.59 169.61 273.07 162.07 C 279.55 154.54 264.94 149.64 258.00 152.00 C 251.06 154.36 242.72 148.98 240.00 144.00
M 258.00 130.00 
C 252.67 130.00 247.33 130.00 242.00 130.00
C 243.75 122.35 256.20 122.79 258.00 130.00 Z"/>
</g>
<g fill="#FDAB64" fill-opacity="1.00" stroke="None">
<path d="
M 49.00 115.00 
C 57.56 112.85 67.95 116.97 76.00 114.00
C 67.42 115.90 56.90 111.79 49.00 115.00 Z"/>
</g>
<g fill="#7A3E98" fill-opacity="1.00" stroke="None">
<path d="
M 118.00 162.00 
C 124.51 171.82 134.30 163.03 132.00 154.00 C 129.70 144.97 134.21 132.83 131.30 124.70 C 128.40 116.56 120.95 112.81 113.00 114.00 C 105.05 115.19 90.78 109.47 88.78 119.78 C 86.78 130.09 102.33 126.25 106.00 130.00
C 94.10 128.27 80.28 143.69 86.75 155.25 C 93.22 166.80 108.29 167.07 118.00 162.00
M 118.00 140.00 
C 121.09 147.31 104.71 158.16 99.26 150.74 C 93.80 143.32 113.25 140.29 118.00 140.00 Z"/>
</g>
<g fill="#7E3E9A" fill-opacity="1.00" stroke="None">
<path d="
M 324.00 152.00 
C 313.70 152.67 302.74 151.93 295.25 144.75 C 287.77 137.56 295.87 122.00 308.00 128.00 C 320.13 134.00 330.62 116.58 318.00 114.00 C 305.38 111.42 297.11 114.36 287.75 119.75 C 278.40 125.14 278.51 137.97 281.23 146.77 C 283.95 155.57 293.18 160.05 301.31 162.69 C 309.43 165.33 328.73 166.86 324.00 152.00 Z"/>
</g>
<g fill="#FEF1D8" fill-opacity="1.00" stroke="None">
<path d="
M 164.00 167.00 
C 157.88 161.23 161.91 149.80 161.00 142.00 C 160.09 134.20 161.52 123.94 161.00 117.00
C 160.68 125.07 159.00 135.67 160.00 144.00 C 161.00 152.33 156.76 161.61 164.00 167.00 Z"/>
</g>
<g fill="#FEFDFC" fill-opacity="1.00" stroke="None">
<path d="
M 80.00 118.00 
C 73.00 122.46 51.11 114.08 48.33 124.33 C 45.55 134.58 57.54 141.87 68.00 142.00 C 78.46 142.13 83.91 129.36 80.00 118.00 Z"/>
</g>
<g fill="#7F3E9E" fill-opacity="1.00" stroke="None">
<path d="
M 176.00 118.00 
C 172.00 118.00 168.00 118.00 164.00 118.00
C 162.78 131.73 165.62 139.70 164.00 154.00 C 162.38 168.30 178.39 166.99 176.00 153.00 C 173.61 139.01 177.79 131.41 176.00 118.00 Z"/>
</g>
<g fill="#F5F1F5" fill-opacity="1.00" stroke="None">
<path d="
M 258.00 130.00 
C 256.20 122.79 243.75 122.35 242.00 130.00
C 247.33 130.00 252.67 130.00 258.00 130.00 Z"/>
</g>
<g fill="#FF7431" fill-opacity="1.00" stroke="None">
<path d="
M 320.00 132.00 
C 313.87 133.91 305.28 130.88 299.00 133.00
C 291.29 138.00 300.23 145.15 306.78 146.22 C 313.32 147.30 322.22 147.61 328.00 151.00
C 328.00 143.67 328.00 136.33 328.00 129.00
C 325.03 129.12 322.72 131.15 320.00 132.00
M 322.00 136.00 
C 324.38 145.81 303.32 144.35 302.00 136.00
C 308.67 136.00 315.33 136.00 322.00 136.00 Z"/>
</g>
<g fill="#FCA967" fill-opacity="1.00" stroke="None">
<path d="
M 299.00 133.00 
C 305.28 130.88 313.87 133.91 320.00 132.00
C 313.42 133.16 304.74 130.03 299.00 133.00 Z"/>
</g>
<g fill="#FEFBF8" fill-opacity="1.00" stroke="None">
<path d="
M 322.00 136.00 
C 315.33 136.00 308.67 136.00 302.00 136.00
C 303.32 144.35 324.38 145.81 322.00 136.00 Z"/>
</g>
<g fill="#F7F5F9" fill-opacity="1.00" stroke="None">
<path d="
M 118.00 140.00 
C 113.25 140.29 93.80 143.32 99.26 150.74 C 104.71 158.16 121.09 147.31 118.00 140.00 Z"/>
</g>
<g fill="#FDA95F" fill-opacity="1.00" stroke="None">
<path d="
M 60.00 168.00 
C 65.05 169.43 72.29 170.04 77.00 167.00
C 72.79 168.90 64.69 168.72 60.00 168.00 Z"/>
</g>
<g fill="#FCB279" fill-opacity="1.00" stroke="None">
<path d="
M 109.00 169.00 
C 112.14 168.71 115.86 168.71 119.00 169.00
C 115.53 168.27 112.53 168.26 109.00 169.00 Z"/>
</g>
<g fill="#FDAA65" fill-opacity="1.00" stroke="None">
<path d="
M 271.00 168.00 
C 264.99 169.80 252.24 168.95 246.00 168.00
C 251.86 169.66 265.22 170.70 271.00 168.00 Z"/>
</g>
<g fill="#FEB894" fill-opacity="1.00" stroke="None">
<path d="
M 321.00 173.00 
C 315.94 173.45 310.06 173.45 305.00 173.00
C 310.06 174.03 315.88 174.04 321.00 173.00 Z"/>
</g>
</svg>